<?xml version="1.0" standalone="no"?>
<!DOCTYPE svg PUBLIC "-//W3C//DTD SVG 20010904//EN"
 "http://www.w3.org/TR/2001/REC-SVG-20010904/DTD/svg10.dtd">
<svg version="1.0" xmlns="http://www.w3.org/2000/svg"
 width="1235.000000pt" height="579.000000pt" viewBox="0 0 1235.000000 579.000000"
 preserveAspectRatio="xMidYMid meet">

<g transform="translate(0.000000,579.000000) scale(0.100000,-0.100000)"
fill="#000000" stroke="none">
<path d="M2393 4820 c-35 -14 -43 -42 -43 -154 l0 -106 -282 0 c-299 0 -350
-6 -370 -43 -20 -38 -15 -146 9 -192 46 -86 129 -147 253 -186 l75 -24 702 0
702 0 23 23 c20 20 23 33 23 101 0 73 -2 81 -37 133 -45 68 -118 118 -224 154
-68 23 -101 27 -236 32 l-158 5 0 27 c0 41 -58 119 -120 162 -91 64 -245 97
-317 68z"/>
<path d="M3775 4681 c-52 -22 -50 4 -53 -702 -3 -734 -2 -741 64 -875 44 -89
121 -172 194 -209 46 -23 63 -27 122 -23 54 3 73 8 91 26 22 22 22 26 25 342
l3 319 37 6 c243 41 404 222 338 380 -20 46 -57 55 -232 55 l-141 0 -6 148
c-6 168 -23 237 -84 341 -39 66 -123 150 -177 178 -35 18 -151 27 -181 14z"/>
<path d="M5411 4675 c-215 -40 -348 -129 -425 -287 -47 -95 -66 -187 -66 -325
0 -207 45 -345 146 -448 89 -90 205 -135 405 -156 161 -17 741 -6 839 15 303
68 443 272 427 626 -8 175 -36 264 -115 368 -71 95 -168 155 -311 195 -70 19
-106 21 -451 23 -286 2 -393 0 -449 -11z m759 -450 c52 -31 74 -76 74 -154 1
-79 -21 -124 -74 -152 -32 -17 -61 -19 -343 -19 -299 0 -311 1 -348 22 -49 27
-69 70 -69 148 0 98 31 145 111 169 20 6 152 9 324 8 272 -2 292 -3 325 -22z"/>
<path d="M7094 4676 c-17 -8 -34 -21 -38 -31 -3 -9 -6 -439 -6 -956 l0 -939
-300 0 c-198 0 -307 -4 -323 -11 -34 -15 -47 -49 -47 -118 0 -109 69 -202 196
-262 96 -46 177 -59 375 -59 l177 0 28 -37 c90 -120 200 -174 307 -151 83 17
77 -68 77 1110 0 1154 3 1094 -65 1234 -43 87 -127 177 -199 210 -58 27 -133
31 -182 10z"/>
<path d="M8113 4559 c-40 -12 -57 -58 -51 -139 10 -142 161 -246 389 -270 53
-5 423 -10 847 -10 l752 0 0 -477 c0 -500 -10 -754 -35 -888 -39 -212 -40
-229 -19 -270 39 -74 145 -100 230 -57 23 11 72 52 111 91 106 107 147 202
180 430 20 135 32 1361 14 1427 -14 51 -71 118 -125 147 l-41 22 -1110 2
c-660 1 -1123 -2 -1142 -8z"/>
<path d="M2190 3985 c-266 -43 -431 -190 -471 -419 -17 -102 -7 -295 21 -374
61 -173 210 -281 433 -311 102 -14 727 -14 820 0 323 48 466 216 467 545 0
116 -24 227 -66 305 -61 111 -203 208 -359 245 -97 23 -718 30 -845 9z m700
-434 c97 -53 106 -173 17 -226 -30 -19 -52 -20 -322 -20 -261 0 -293 2 -323
18 -56 31 -77 107 -47 172 32 67 73 74 395 72 195 -2 261 -5 280 -16z"/>
<path d="M8934 3376 c-17 -7 -35 -22 -40 -32 -5 -11 -11 -329 -14 -709 l-5
-690 -475 -5 c-261 -3 -476 -7 -477 -8 -18 -17 -33 -73 -33 -119 0 -102 77
-202 196 -254 126 -56 52 -53 1336 -56 653 -2 1202 0 1220 5 50 13 73 52 72
126 -1 135 -112 242 -299 291 -49 12 -139 15 -547 15 l-487 0 -3 528 c-3 511
-4 529 -26 592 -45 134 -143 259 -239 305 -49 24 -139 30 -179 11z"/>
<path d="M4860 3337 c-43 -15 -63 -53 -62 -122 0 -66 20 -113 72 -169 50 -54
102 -86 190 -117 59 -20 87 -23 313 -27 l247 -4 0 -288 c0 -198 4 -297 12
-314 20 -45 108 -58 194 -29 36 12 68 35 120 87 118 118 164 239 164 433 l0
112 350 3 c345 3 350 3 372 25 26 27 37 122 19 176 -31 93 -122 169 -256 215
l-80 27 -810 2 c-616 2 -818 -1 -845 -10z"/>
<path d="M1773 2680 c-46 -19 -63 -100 -39 -183 29 -100 139 -188 292 -233 54
-16 131 -18 878 -21 l818 -4 -5 -172 c-3 -134 -10 -199 -31 -296 -36 -170 -35
-220 5 -265 79 -91 211 -69 321 54 108 119 178 308 198 534 13 147 13 343 -1
406 -14 68 -62 128 -128 162 l-53 28 -1117 -1 c-618 0 -1126 -4 -1138 -9z"/>
<path d="M4996 2678 c-63 -17 -66 -32 -66 -381 0 -177 5 -328 11 -363 42 -226
259 -378 632 -444 195 -34 342 -43 652 -43 555 2 869 43 1081 142 138 65 217
160 230 277 7 67 -17 112 -76 142 -56 29 -126 26 -250 -12 -122 -38 -198 -53
-349 -70 -341 -40 -877 -45 -1091 -12 -147 23 -255 61 -304 106 l-41 39 -6
163 c-7 176 -16 215 -70 300 -17 26 -47 62 -67 79 -75 67 -201 100 -286 77z"/>
</g>
</svg>
